<?xml version="1.0" encoding="UTF-8"?>
<svg id="Layer_1" xmlns="http://www.w3.org/2000/svg" version="1.1" viewBox="0 0 107 128">
  <!-- Generator: Adobe Illustrator 29.6.1, SVG Export Plug-In . SVG Version: 2.1.1 Build 9)  -->
  <defs>
    <style>
      .st0 {
        fill: #92eb9b;
      }
    </style>
  </defs>
  <polygon points="35.1 36.9 40.9 31.2 65.6 31.2 71.9 37.4 71.9 43.1 80.7 43.1 80.7 34.5 69.5 23.3 37 23.3 26.3 34 26.3 58.2 35.1 49.6 35.1 36.9"/>
  <polygon points="37.1 54.9 36.1 55.9 26.3 65.4 26.3 94 37 104.7 66.1 104.7 66.1 96.8 40.9 96.8 35.1 91.1 35.1 68.4 40.9 62.8 66.1 62.8 71.9 68.5 71.9 104.7 71.9 104.7 80.7 96.2 80.7 65.6 70 54.9 37.1 54.9"/>
  <path class="st0" d="M84.2,1.4H22.8c-8.6,0-15.6,7-15.6,15.6v93.9c0,8.6,7,15.6,15.6,15.6h61.4c8.6,0,15.6-7,15.6-15.6V17.1c0-8.6-7-15.6-15.6-15.6ZM66.1,62.8h-25.1l-5.8,5.5v22.7l5.8,5.7h25.1v7.9s-29.1,0-29.1,0l-10.7-10.7v-28.6l9.8-9.5,1-.9h32.9l10.7,10.7v30.5l-8.8,8.5h0v-36.1l-5.8-5.7ZM80.7,43.1h-8.8v-5.7l-6.3-6.1h-24.7l-5.8,5.7v12.7l-8.8,8.6v-24.2l10.7-10.7h32.5l11.2,11.2v8.6Z"/>
</svg>